<svg xmlns="http://www.w3.org/2000/svg" height="48" viewBox="0 -960 960 960" width="48" fill="#fefefe"><path d="M481.154-141.117q-141.423 0-240.153-98.73-98.73-98.731-98.73-240.153 0-114.729 65.095-201.921t177.671-121.116q37.423-9.653 50.692 8.635 13.269 18.288.885 53.249-6.077 20-8.981 40.041-2.904 20.042-2.904 41.112 0 98.51 68.958 167.467 68.957 68.957 167.467 68.957 24.36 0 45.233-3.568 20.873-3.569 39.69-7.085 37.768-10.846 52.633 3.827 14.865 14.673 5.612 49.078-31.632 104.132-117.964 172.17-86.333 68.037-205.204 68.037Zm.155-43.845q102.883 0 181.556-62.865 78.673-62.865 102.057-151.134-24.102 9.416-50.756 14.323-26.653 4.908-52.942 4.908-116.492 0-198.416-81.924-81.924-81.924-81.924-198.417 0-23.16 4.35-48.839 4.349-25.679 15.881-57.089-93.731 28.461-154.365 108.13-60.634 79.669-60.634 178.11 0 122.871 86.092 208.834 86.092 85.963 209.101 85.963Zm-5.386-290.422Z"/></svg>