<svg xmlns="http://www.w3.org/2000/svg" height="48" viewBox="0 -960 960 960" width="48" fill="#fefefe"><path d="M479.808-344.962q56.192 0 96.057-39.327t39.865-95.519q0-56.192-39.526-96.057-39.525-39.865-95.865-39.865-56.339 0-95.858 39.526-39.519 39.525-39.519 95.865 0 56.339 39.327 95.858 39.327 39.519 95.519 39.519Zm.279 43.845q-74.702 0-126.836-52.194T301.117-480.06q0-74.555 52.194-127.035 52.194-52.481 126.749-52.481 74.555 0 127.035 52.394 52.481 52.394 52.481 127.095 0 74.702-52.394 126.836t-127.095 52.134ZM72.693-458.424q-9.53 0-15.553-6.08-6.024-6.08-6.024-15.692 0-9.611 6.024-15.842t15.552-6.231h104.616q9.529 0 15.899 6.427 6.37 6.426 6.37 16.038 0 9.611-6.37 15.496-6.37 5.884-15.899 5.884H72.693Zm709.999 0q-9.529 0-15.553-6.08-6.024-6.08-6.024-15.692 0-9.611 6.024-15.842t15.553-6.231h104.615q9.529 0 15.899 6.427 6.37 6.426 6.37 16.038 0 9.611-6.37 15.496-6.37 5.884-15.899 5.884H782.692ZM479.804-761.115q-9.611 0-15.496-6.024-5.884-6.024-5.884-15.553v-104.615q0-9.529 6.08-15.899 6.08-6.37 15.692-6.37 9.611 0 15.842 6.37t6.231 15.899v104.615q0 9.529-6.427 15.553-6.426 6.024-16.038 6.024Zm0 709.999q-9.611 0-15.496-6.024-5.884-6.024-5.884-15.552v-104.616q0-9.529 6.08-15.899 6.08-6.37 15.692-6.37 9.611 0 15.842 6.37t6.231 15.899v104.615q0 9.53-6.427 15.553-6.426 6.024-16.038 6.024ZM251.193-679l-60.462-59.077q-6.884-6.192-6.578-15.536.307-9.344 6.639-15.952 6.251-6.473 15.402-6.627 9.152-.154 15.729 6.231l59.462 60.077q6.269 7 6.269 15.743t-6.077 15.014q-6.269 6.396-15.134 6.492-8.865.096-15.25-6.365Zm486.884 488.269-59.462-60.077q-6.461-6.436-6.365-15.401.096-8.964 6.865-15.676 5.5-6.384 14.387-6.038 8.887.346 15.997 6.923l60.462 59.077q6.192 6.192 5.886 15.536-.307 9.344-6.639 15.952-6.251 6.473-15.402 6.627-9.152.154-15.729-6.923Zm-59.416-487.692q-6.93-6.384-6.584-15.175.346-8.791 6.923-15.901l59.077-60.462q6.192-6.192 15.536-5.886 9.344.307 15.952 6.639 6.473 6.251 6.627 15.402.154 9.152-6.231 15.729l-60.077 59.462q-6.314 6.269-15.281 6.269t-15.942-6.077ZM190.435-190.334q-6.473-6.717-6.627-15.865-.154-9.147 6.923-15.724l60.077-59.462q6.339-6.576 15.169-6.73 8.831-.154 15.684 6.73 6.416 6 5.973 14.904-.442 8.903-6.634 15.288l-59.077 60.462q-6.577 7.077-15.729 6.962-9.151-.114-15.759-6.565ZM480-480Z"/></svg>